<svg width="512" height="512" viewBox="0 0 512 512" fill="none" xmlns="http://www.w3.org/2000/svg">
<path fill-rule="evenodd" clip-rule="evenodd" d="M107.01 259.166C102.399 259.166 100.245 253.455 103.709 250.41L254.094 118.244C255.982 116.585 258.808 116.585 260.695 118.244L411.08 250.41C414.544 253.455 412.391 259.166 407.779 259.166H376.767C374.006 259.166 371.767 261.405 371.767 264.166V390.837C371.767 393.599 369.529 395.837 366.767 395.837H308.957C306.196 395.837 303.957 393.599 303.957 390.837V313.034C303.957 310.272 301.719 308.034 298.957 308.034H215.38C212.618 308.034 210.38 310.272 210.38 313.034V390.837C210.38 393.599 208.141 395.837 205.38 395.837H147.57C144.808 395.837 142.57 393.599 142.57 390.837V264.166C142.57 261.405 140.331 259.166 137.57 259.166H107.01ZM317.519 128.289C317.519 125.528 319.758 123.289 322.519 123.289H362.247C365.008 123.289 367.247 125.528 367.247 128.289V190.989L317.519 147.286V128.289Z" fill="white"/>
</svg>
